<svg id="Layer_1" data-name="Layer 1" xmlns="http://www.w3.org/2000/svg" viewBox="0 0 2000 576"><defs><style>.cls-1{fill:#403d9c;}</style></defs><title>ByNext_Logotype</title><path class="cls-1" d="M743.67,133.49v-5.71H592.37v5.71h5.92c16.6,0,30.18,15.5,31.3,46.68V337.22c0,30.34-37.18,78.56-71.56,78.56-24.33,0-45.8-14.27-54.22-37.1-7.13-19.3-8.94-39.41-9.08-59.77-.14-19.05-.3-138.62-.3-138.62,1.09-31.26,14.68-46.8,31.3-46.8h5.92v-5.71H380.37v5.71h5.92c16.59,0,30.17,15.5,31.28,46.68,0,0-.12,116.65-.12,137.32C417.45,442,497.14,447,515.34,447c67.21,0,100.85-53.77,114.25-74.85,0,3.07,0,18.85,0,23.9,0,39.52-10.42,145-121.27,143.41-17.46-.25-67.95-2.18-99.28-33.43L406.42,509c18.78,29.89,54.14,67.26,134.62,67.26,150.32,0,165.33-117.82,165.33-156.48,0,0,.07-239.15.07-239.15,1-31.46,14.64-47.1,31.31-47.1Z"/><path class="cls-1" d="M279.65,202c-23.64-7.79-58.77-8.4-58.77-8.4v-.46s36.78-.68,61-11.13c52.1-22.45,77.73-51,77.73-87.58,0-27.81-17.48-50-25.39-57C318,23,297.56.1,216.46.1H.12V5.82h10.7c17.33,0,31.37,16.88,31.37,50.87,0,24.93,0,332.87,0,332.87-1.11,31.18-14.69,46.68-31.28,46.68H.23V442H119V10h77.13c63.71,0,88.7,35.13,88.7,81.86,0,43.19-29.65,98.65-102.64,98.65v8.32c73,0,128.64,66.48,128.64,129.31,0,19.82-3.11,106-72.59,106-40.85,0-73.28-23.78-90.46-53.53l-4.56,3.24C159.93,415.32,194.38,447,245.52,447c44.78,0,75.81-9.71,97.3-23.57,48.88-31.53,48.49-84.51,48.49-93.61C391.31,270.6,354.93,226.81,279.65,202Z"/><path class="cls-1" d="M1123.63,332.84c0-45.56,0-109.27,0-150.18V143.39c.35-35.06,12.52-107.29,50.2-130.33,12.63-7.72,31.35-7.4,31.35-7.4V-.06H1028V5.66s18.72-.32,31.34,7.4c37.68,23,49.85,95.27,50.21,130.33,0,0,0,138.7,0,211.63,0,0-159.8-226.12-205.32-291.24C873.11,19.28,849.27-.06,801-.06c-11.69,0-71.07,0-86.08,0v5.7c17.2,0,54.79.53,91.71,53V298.35c-.35,35-12.52,107.28-50.21,130.32-12.62,7.72-31.34,7.41-31.34,7.41v5.72H902.32v-5.72s-18.72.31-31.34-7.41c-37.69-23-49.86-95.27-50.21-130.32,0,0-.14-149.8-.14-220,0,0,198,281,215.25,305.37a137.36,137.36,0,0,0,112.2,58.11H1203v-6c-25.3-1.7-41.35-15.48-51.54-25.65C1128.81,387.58,1123.64,360.19,1123.63,332.84Z"/><path class="cls-1" d="M1928,411.79c-44,0-47.66-34.88-47.66-81.56,0-29.41,0-105.09,0-178.21,32.32,0,86.21.08,119.64.13l0-24.29c-43.62,0-73.7-.3-119.66-.32V64.75h-9c-5.2,4.6-59.17,52.26-71.32,63.11h-54.69c-38.15,0-59.34,8.79-83.57,38.09l-50.84,67.79c-15.44-22.51-30.74-44.82-44.26-64.5-12.9-18.78.93-35.67,20.06-35.67h9.67v-5.71H1406.56v5.89c30,.15,55.6,15.3,81.54,55.61,1.59,2.47,37.59,55.07,74.1,108.27l-2.6,2.73c-43.82,44.84-93.95,90.11-175.51,90.11-119.09,0-154.78-95.46-158.22-113.12h140.71c35.77,0,55-13.53,61.32-30.47,19.26-51.84-17.72-99.07-56.62-112.92-25.57-9.12-62-11.66-95-1.89-57.52,17-119.43,63.78-119.43,149.38,0,58,27.57,165.21,180.15,165.21,128.46,0,204.66-93.61,232.85-131.11l2.52-3.07c32,46.61,61.93,90.09,66.59,96.56,23.75,33,55.14,37.62,73.65,37.62,60.33,0,82.74-57.09,82.74-57.09l-3.64-2.86-7.21,8.59c-14.45,16.34-45.9,23.06-75.18-18.12-2.47-3.49-43.32-63.09-86.43-126l56.56-61.31c23.75-23.75,34.71-38.09,80.64-38.09h43.21c.09,38.91,0,140.42,0,190.58,0,51.4,21.88,104.42,91.78,104.42,69.6,0,88.78-47.83,104.88-76.48l-3.39-1.89C1996.36,368.7,1969.14,411.79,1928,411.79ZM1223.62,255c0-38.49,10.22-81.81,29.25-100.16,20.79-20,48-25.39,73.88-10,22.19,13.13,45.47,54.19,32.36,102.19a27.75,27.75,0,0,1-26.76,20.44h-108A119,119,0,0,1,1223.62,255Z"/></svg>